<svg width="352" height="76" viewBox="0 0 352 76" fill="none" xmlns="http://www.w3.org/2000/svg">
<g clip-path="url(#clip0_74_38)">
<path d="M294.22 16.68C294.22 16.68 289.48 11.34 278.67 5.64C270.28 1.21 265.23 0 265.23 0C265.23 0 269.41 3.48 269.41 10.94V36.7C269.41 39.43 272.01 41.58 272.01 41.58L290.84 59.64C290.84 59.64 284.97 51.23 284.97 42.72V26.55C284.97 14.2 275.47 9.69 275.47 9.69C275.47 9.69 279.98 10.16 285.68 12.42C290.03 14.14 294.22 16.69 294.22 16.69V16.68Z" fill="black"/>
<path d="M316.3 33.0391C316.3 33.0391 310.95 36.7491 308.52 41.8691C306.1 36.7491 300.74 33.0391 300.74 33.0391V54.0791C300.74 54.0791 300.74 54.1391 300.74 54.1691V67.0591C300.74 68.5891 302.2 69.7891 302.2 69.7891L308.52 75.8491L314.84 69.7891C314.84 69.7891 316.3 68.5891 316.3 67.0591V52.6391V33.0391Z" fill="black"/>
<path d="M338.38 5.64C327.57 11.34 322.83 16.68 322.83 16.68C322.83 16.68 327.02 14.13 331.37 12.41C337.07 10.15 341.58 9.68 341.58 9.68C341.58 9.68 332.08 14.19 332.08 26.54V42.71C332.08 51.22 326.21 59.63 326.21 59.63L345.04 41.57C345.04 41.57 347.64 39.42 347.64 36.69V10.94C347.64 3.49 351.82 0 351.82 0C351.82 0 346.78 1.21 338.38 5.64Z" fill="black"/>
<path d="M199.029 24.7793L195.119 43.2493H205.499L201.589 24.7793H199.029ZM197.319 41.3793L200.339 27.2893L203.289 41.3793H197.319Z" fill="black"/>
<path d="M204.25 21.3105H196.38L189 54.6805H190.91L192.71 46.7305H207.91L209.71 54.6805H211.62L204.24 21.3105H204.25ZM193.06 44.8505L197.78 23.1705H202.85L207.57 44.8505H193.07H193.06Z" fill="black"/>
<path d="M207.06 17.8398H193.56L184.49 58.1398H193.87L195.52 50.1798H205.1L206.75 58.1398H216.13L207.05 17.8398H207.06ZM208.26 56.2798L206.61 48.3198H194.02L192.37 56.2798H186.9L195.07 19.7098H205.55L213.73 56.2798H208.26Z" fill="black"/>
<path d="M157.801 21.3105V54.6805H159.701V23.1805H161.261L174.451 54.6805H179.271V21.3105H177.361V52.8105H175.811L162.561 21.3105H157.801Z" fill="black"/>
<path d="M173.8 38.8798L164.98 17.8398H154.25V58.1398H163.28V37.2098L172.06 58.1398H182.84V17.8398H173.81V38.8798H173.8ZM175.71 19.7098H180.93V56.2798H173.4L161.36 28.0398V56.2798H156.14V19.7098H163.66L175.7 47.7898V19.7098H175.71Z" fill="black"/>
<path d="M123.391 21.3105V54.6805H125.291V23.1805H126.851L140.051 54.6805H144.861V21.3105H142.951V52.8105H141.401L128.151 21.3105H123.391Z" fill="black"/>
<path d="M139.39 38.8798L130.56 17.8398H119.83V58.1398H128.86V37.2098L137.64 58.1398H148.42V17.8398H139.39V38.8798ZM141.3 19.7098H146.51V56.2798H138.99L126.95 28.0398V56.2798H121.73V19.7098H129.25L141.29 47.7898V19.7098H141.3Z" fill="black"/>
<path d="M100.471 24.7793L96.5605 43.2493H106.951L103.031 24.7793H100.471ZM98.7606 41.3793L101.771 27.2893L104.731 41.3793H98.7606Z" fill="black"/>
<path d="M97.8097 21.3105L90.4297 54.6805H92.3397L94.1497 46.7305H109.35L111.16 54.6805H113.06L105.69 21.3105H97.8097ZM94.4997 44.8505L99.2197 23.1705H104.28L108.99 44.8505H94.4997Z" fill="black"/>
<path d="M94.9999 17.8398L85.9199 58.1398H95.2999L96.9599 50.1798H106.54L108.2 58.1398H117.58L108.5 17.8398H95.0099H94.9999ZM109.7 56.2798L108.04 48.3198H95.4499L93.7899 56.2798H88.3199L96.4999 19.7098H106.98L115.16 56.2798H109.69H109.7Z" fill="black"/>
<path d="M83.1104 21.3105L76.2404 52.8105H71.1704L64.3004 21.3105H62.4004L69.7704 54.6805H77.6404L85.0204 21.3105H83.1104Z" fill="black"/>
<path d="M80.1506 17.8398L73.7406 48.6898L67.2706 17.8398H57.8906L66.9706 58.1398H80.4606L89.5406 17.8398H80.1606H80.1506ZM78.9506 56.2798H68.4706L60.3006 19.7098H65.7706L72.4406 51.2098H75.0006L81.6706 19.7098H87.1406L78.9606 56.2798H78.9506Z" fill="black"/>
<path d="M43.4393 24.7793L39.5293 43.2493H49.9093L45.9993 24.7793H43.4393ZM41.7293 41.3793L44.7393 27.2893L47.6993 41.3793H41.7293Z" fill="black"/>
<path d="M40.7704 21.3105L33.4004 54.6805H35.3004L37.1104 46.7305H52.3104L54.1104 54.6805H56.0204L48.6404 21.3105H40.7604H40.7704ZM37.4704 44.8505L42.1904 23.1705H47.2504L51.9604 44.8505H37.4704Z" fill="black"/>
<path d="M37.9706 17.8398L28.8906 58.1398H38.2706L39.9306 50.1798H49.5106L51.1706 58.1398H60.5506L51.4706 17.8398H37.9806H37.9706ZM52.6606 56.2798L51.0006 48.3198H38.4106L36.7506 56.2798H31.2806L39.4606 19.7098H49.9406L58.1206 56.2798H52.6506H52.6606Z" fill="black"/>
<path d="M5.47055 21.3105H3.56055V54.6805H5.47055V37.9105H22.0705V54.6805H23.9805V21.3105H22.0705V36.0505H5.47055V21.3105Z" fill="black"/>
<path d="M18.51 17.8398V32.5798H9.03V17.8398H0V58.1398H9.03V41.3798H18.51V58.1398H27.54V17.8398H18.51ZM25.63 56.2798H20.41V39.5198H7.12V56.2798H1.9V19.7098H7.12V34.4498H20.42V19.7098H25.64V56.2798H25.63Z" fill="black"/>
<path d="M248.26 31.9591L244.84 28.5391L240.08 33.2991L235.41 28.6291L231.99 32.0491L236.66 36.7191L231.93 41.4491L235.35 44.8691L240.08 40.1391L244.78 44.8391L248.2 41.4191L243.5 36.7191L248.26 31.9591ZM246.17 41.5091L244.82 42.8591L240.11 38.1491L235.4 42.8591L234.05 41.5091L238.76 36.7991L234.05 32.0891L235.4 30.7391L240.11 35.4491L244.82 30.7391L246.17 32.0891L241.46 36.7991L246.17 41.5091Z" fill="black"/>
</g>
<defs>
<clipPath id="clip0_74_38">
<rect width="351.81" height="75.84" fill="white"/>
</clipPath>
</defs>
</svg>
